<svg width="84" height="80" fill="none" xmlns="http://www.w3.org/2000/svg"><path d="M21.5 15L28 29l6.5 14L45 39.5V11L30.5 0l-9 15z" fill="#38A4F0"/><path d="M66.5 15L54 23.5l1 9L45 59h6.5L71 35l-4.5-20z" fill="#2D83E3"/><path d="M65 18l-10 6.5 2 2.5 8-9z" fill="#fff"/><path d="M12 42.5l2-18 17.5 6 5 9.5V27.5l14-12 9 16-14 27.5h-9L12 42.5z" fill="#2463D5"/><path d="M35.5 28L31 3l7 9-2.5 16z" fill="#66B8F2"/><path d="M17 40V28.5L37 50v3.5L17 40zm27.5 16l5-37 3 12-8 25z" fill="#38A4F0"/><path d="M39.5 17l1.5 8.5-1.5 8.5-1.5-8.5 1.5-8.5z" fill="#fff"/><path d="M45 25.5l-5.5 1.517L34 25.5l5.5-1.517L45 25.5zM51.5 46l1.5 5.5-1.5 5.5-1.5-5.5 1.5-5.5z" fill="#fff"/><path d="M57 51.5l-5.5 1.517L46 51.5l5.5-1.517L57 51.5z" fill="#fff"/><path d="M5.837 78.282l-1.833-3.159H2.639v3.159H.845v-9.1h3.64c.84 0 1.556.295 2.145.884.59.59.884 1.3.884 2.132a2.8 2.8 0 01-.481 1.573c-.32.477-.745.836-1.274 1.079l2.015 3.432H5.837zm-3.198-7.423v2.691h1.846c.338 0 .628-.13.871-.39.243-.269.364-.59.364-.962a1.34 1.34 0 00-.364-.949 1.15 1.15 0 00-.871-.39H2.639zm13.747 6.24c-.919.91-2.037 1.365-3.354 1.365-1.318 0-2.435-.455-3.354-1.365-.91-.919-1.365-2.041-1.365-3.367s.455-2.444 1.365-3.354c.918-.919 2.036-1.378 3.354-1.378 1.317 0 2.435.46 3.354 1.378.919.91 1.378 2.028 1.378 3.354s-.46 2.448-1.378 3.367zm-5.447-1.222c.563.555 1.26.832 2.093.832.832 0 1.53-.277 2.093-.832.563-.563.845-1.278.845-2.145s-.282-1.582-.845-2.145-1.261-.845-2.093-.845c-.832 0-1.53.282-2.093.845s-.845 1.278-.845 2.145.282 1.582.845 2.145zm14.628-6.695l-3.12 5.551v3.549h-1.781v-3.549l-3.108-5.551h2.029l1.976 3.796 1.976-3.796h2.027zm5.541 9.1l-.546-1.638h-3.627l-.546 1.638h-1.937l3.185-9.1h2.223l3.198 9.1h-1.95zm-3.6-3.315h2.495l-1.248-3.718-1.248 3.718zm8.228 1.599h3.47v1.716h-5.264v-9.1h1.794v7.384z" fill="#38A4F0"/><path d="M49.157 73.394v.702c0 1.3-.416 2.353-1.248 3.159-.832.806-1.907 1.209-3.224 1.209-1.404 0-2.57-.455-3.497-1.365-.919-.919-1.378-2.037-1.378-3.354 0-1.326.455-2.448 1.365-3.367.919-.919 2.054-1.378 3.406-1.378.85 0 1.625.195 2.327.585a4.24 4.24 0 011.638 1.534l-1.534.884c-.217-.373-.546-.676-.988-.91a3.015 3.015 0 00-1.456-.351c-.867 0-1.582.286-2.145.858-.555.563-.832 1.278-.832 2.145 0 .858.282 1.569.845 2.132.572.555 1.326.832 2.262.832.693 0 1.265-.152 1.716-.455.46-.312.771-.737.936-1.274h-2.756v-1.586h4.563zm6.268 4.888l-1.833-3.159h-1.365v3.159h-1.794v-9.1h3.64c.84 0 1.556.295 2.145.884.59.59.884 1.3.884 2.132 0 .563-.16 1.088-.481 1.573-.32.477-.745.836-1.274 1.079l2.015 3.432h-1.937zm-3.198-7.423v2.691h1.846c.338 0 .628-.13.87-.39.244-.269.365-.59.365-.962a1.34 1.34 0 00-.364-.949 1.15 1.15 0 00-.871-.39h-1.846zm13.747 6.24c-.919.91-2.037 1.365-3.354 1.365-1.318 0-2.436-.455-3.354-1.365-.91-.919-1.365-2.041-1.365-3.367s.455-2.444 1.365-3.354C60.184 69.459 61.302 69 62.62 69c1.317 0 2.435.46 3.354 1.378.918.91 1.378 2.028 1.378 3.354s-.46 2.448-1.378 3.367zm-5.447-1.222c.563.555 1.26.832 2.093.832.832 0 1.53-.277 2.093-.832.563-.563.845-1.278.845-2.145s-.282-1.582-.845-2.145c-.564-.563-1.261-.845-2.093-.845-.832 0-1.53.282-2.093.845-.564.563-.845 1.278-.845 2.145s.281 1.582.845 2.145zm11.415 2.587c-1.014 0-1.846-.286-2.496-.858-.65-.572-.975-1.339-.975-2.301v-6.123h1.781v5.98c0 .477.135.854.403 1.131.278.277.706.416 1.287.416.58 0 1.006-.139 1.274-.416.278-.277.416-.654.416-1.131v-5.98h1.794v6.123c0 .962-.325 1.729-.975 2.301-.65.572-1.486.858-2.509.858zm8.493-9.282c.876 0 1.612.295 2.21.884.598.59.897 1.313.897 2.171 0 .858-.299 1.582-.897 2.171-.598.59-1.334.884-2.21.884h-1.599v2.99h-1.794v-9.1h3.393zm0 4.433c.382 0 .698-.13.95-.39.25-.269.376-.598.376-.988 0-.399-.125-.728-.377-.988a1.265 1.265 0 00-.949-.39h-1.599v2.756h1.6z" fill="#2463D5"/></svg>