<svg width="204" height="49" fill="none" xmlns="http://www.w3.org/2000/svg"><path d="M7.89 12.458l5.398 11.627 5.398 11.627 8.72-2.907V9.135L15.365 0 7.89 12.458z" fill="#38A4F0"/><path d="M45.263 12.458L34.88 19.517l.83 7.474L27.408 49h5.398L49 29.068l-3.737-16.61z" fill="#2D83E3"/><path d="M44.017 14.95l-8.305 5.398 1.66 2.076 6.645-7.475z" fill="#fff"/><path d="M0 35.297l1.661-14.95 14.534 4.983 4.152 7.89V22.84l11.628-9.966 7.474 13.288L27.822 49h-7.474L0 35.297z" fill="#2463D5"/><path d="M19.517 23.254L15.78 2.492l5.813 7.474-2.076 13.288z" fill="#66B8F2"/><path d="M4.153 33.22v-9.55l16.61 17.855v2.907L4.153 33.22zm22.839 13.288l4.152-30.728 2.492 9.966-6.644 20.762z" fill="#38A4F0"/><path d="M22.839 14.119l1.246 7.059-1.246 7.06-1.246-7.06 1.246-7.06z" fill="#fff"/><path d="M27.407 21.178l-4.568 1.26-4.568-1.26 4.568-1.26 4.568 1.26zm5.398 17.025l1.246 4.568-1.246 4.568-1.246-4.568 1.246-4.568z" fill="#fff"/><path d="M37.373 42.771l-4.568 1.26-4.568-1.26 4.568-1.26 4.568 1.26z" fill="#fff"/><path d="M73.39 35.602l-3.08-5.31h-2.295v5.31H65V20.306h6.118c1.413 0 2.615.495 3.606 1.486.99.99 1.486 2.185 1.486 3.583 0 .947-.27 1.828-.809 2.644a5.089 5.089 0 01-2.141 1.814l3.386 5.769h-3.255zm-5.375-12.477v4.523h3.103c.568 0 1.056-.219 1.464-.656a2.33 2.33 0 00.612-1.617c0-.626-.204-1.158-.612-1.595-.408-.437-.896-.655-1.464-.655h-3.103zm23.106 10.488c-1.544 1.53-3.423 2.294-5.637 2.294-2.214 0-4.093-.764-5.638-2.294-1.53-1.544-2.294-3.43-2.294-5.66 0-2.228.765-4.107 2.294-5.637C81.39 20.772 83.27 20 85.484 20s4.093.772 5.637 2.316c1.544 1.53 2.317 3.409 2.317 5.638s-.773 4.115-2.317 5.659zm-9.155-2.054c.947.932 2.12 1.399 3.518 1.399 1.398 0 2.571-.467 3.518-1.399.947-.947 1.42-2.149 1.42-3.605 0-1.457-.473-2.659-1.42-3.606-.947-.947-2.12-1.42-3.518-1.42-1.398 0-2.571.473-3.518 1.42-.947.947-1.42 2.149-1.42 3.606 0 1.456.473 2.658 1.42 3.605zm24.587-11.253l-5.245 9.33v5.966h-2.993v-5.966l-5.222-9.33H96.5l3.322 6.38 3.321-6.38h3.409zm9.314 15.296l-.918-2.754h-6.096l-.918 2.754h-3.256l5.354-15.296h3.736l5.376 15.296h-3.278zm-6.053-5.572h4.196l-2.098-6.25-2.098 6.25zm13.831 2.687h5.834v2.885h-8.849V20.306h3.015v12.411z" fill="#38A4F0"/><path d="M146.204 27.386v1.18c0 2.185-.699 3.954-2.098 5.31-1.398 1.354-3.204 2.031-5.419 2.031-2.359 0-4.319-.764-5.877-2.294-1.545-1.544-2.317-3.423-2.317-5.637 0-2.23.765-4.116 2.295-5.66 1.544-1.544 3.452-2.316 5.725-2.316 1.427 0 2.731.328 3.911.983 1.18.641 2.098 1.5 2.753 2.579l-2.578 1.485c-.364-.626-.918-1.136-1.661-1.529-.728-.393-1.544-.59-2.447-.59-1.457 0-2.659.48-3.606 1.442-.932.947-1.398 2.149-1.398 3.605 0 1.443.473 2.637 1.42 3.584.962.932 2.229 1.399 3.802 1.399 1.166 0 2.127-.255 2.885-.765a3.893 3.893 0 001.573-2.142h-4.633v-2.665h7.67zm10.536 8.216l-3.081-5.31h-2.295v5.31h-3.015V20.306h6.118c1.413 0 2.615.495 3.606 1.486.99.99 1.485 2.185 1.485 3.583 0 .947-.269 1.828-.808 2.644a5.091 5.091 0 01-2.141 1.814l3.386 5.769h-3.255zm-5.376-12.477v4.523h3.103c.568 0 1.056-.219 1.464-.656a2.33 2.33 0 00.612-1.617c0-.626-.204-1.158-.612-1.595-.408-.437-.896-.655-1.464-.655h-3.103zm23.106 10.488c-1.544 1.53-3.423 2.294-5.637 2.294-2.214 0-4.094-.764-5.638-2.294-1.529-1.544-2.294-3.43-2.294-5.66 0-2.228.765-4.107 2.294-5.637 1.544-1.544 3.424-2.316 5.638-2.316s4.093.772 5.637 2.316c1.544 1.53 2.317 3.409 2.317 5.638s-.773 4.115-2.317 5.659zm-9.155-2.054c.947.932 2.119 1.399 3.518 1.399 1.398 0 2.571-.467 3.518-1.399.947-.947 1.42-2.149 1.42-3.605 0-1.457-.473-2.659-1.42-3.606-.947-.947-2.12-1.42-3.518-1.42-1.399 0-2.571.473-3.518 1.42-.947.947-1.42 2.149-1.42 3.606 0 1.456.473 2.658 1.42 3.605zm19.187 4.348c-1.704 0-3.103-.48-4.195-1.442-1.093-.961-1.639-2.25-1.639-3.867V20.306h2.994v10.051c0 .802.225 1.435.677 1.901.466.466 1.187.7 2.163.7.976 0 1.69-.234 2.142-.7.466-.466.699-1.1.699-1.9V20.305h3.015v10.292c0 1.617-.546 2.906-1.639 3.867-1.092.962-2.498 1.442-4.217 1.442zm14.276-15.601c1.471 0 2.709.495 3.714 1.486 1.006.99 1.508 2.207 1.508 3.649 0 1.442-.502 2.658-1.508 3.649-1.005.99-2.243 1.486-3.714 1.486h-2.688v5.026h-3.015V20.306h5.703zm0 7.451c.641 0 1.172-.219 1.595-.655.422-.452.634-1.006.634-1.661 0-.67-.212-1.224-.634-1.66-.423-.438-.954-.656-1.595-.656h-2.688v4.632h2.688z" fill="#2463D5"/></svg>