<svg width="112" height="104" fill="none" xmlns="http://www.w3.org/2000/svg"><path d="M66.326 0L107 22.677v43.937L66.326 90 27 66.614V22.677L66.326 0z" fill="url(#paint0_linear_516_838)"/><path fill-rule="evenodd" clip-rule="evenodd" d="M66.74 23.049c-.403.093-.96.602-2.069 1.887-1.466 1.701-2.981 4.184-3.777 6.19a16.7 16.7 0 01-.261.637c-.012.019-.586-.336-1.275-.788-2.252-1.479-5.873-3.01-7.114-3.01-.575.001-1.069.265-1.294.692-.202.384-.505 1.666-.725 3.071-.23 1.464-.233 4.504-.007 6.012.09.603.165 1.145.165 1.204 0 .075-.572.098-1.83.077-1.983-.034-3.46.106-5.1.485-1.587.366-2.016.934-1.704 2.255.517 2.194 2.303 5.537 4.038 7.561.348.406.593.77.546.81-.048.039-.534.33-1.082.646-1.956 1.129-3.97 2.805-4.174 3.473-.188.619-.042 1.061.555 1.683 1.67 1.735 4.518 3.453 7.168 4.322 5.97 1.958 12.737.844 17.58-2.895.356-.275.694-.5.753-.5.059 0 .393.22.743.49 6.812 5.239 16.667 5.13 23.463-.26 2.272-1.802 2.465-2.557.994-3.896-.98-.892-2.257-1.825-3.31-2.42-1.333-.753-1.259-.651-.824-1.124 1.65-1.794 3.522-5.139 4.226-7.549.324-1.11.277-1.483-.252-2.002-.32-.315-.515-.4-1.343-.59-1.66-.383-3.129-.523-5.117-.489-1.174.02-1.83-.005-1.83-.069.001-.055.075-.62.165-1.254.195-1.37.22-4.282.048-5.519-.191-1.378-.524-2.927-.726-3.383-.38-.858-1.14-1.02-2.648-.57-1.944.583-4.18 1.651-5.998 2.867-.585.39-1.076.693-1.093.673a9.69 9.69 0 01-.265-.64c-.405-1.032-1.425-2.968-2.088-3.963-1.27-1.904-3.268-4.114-3.72-4.114a1.49 1.49 0 01-.34-.04c-.075-.021-.29-.004-.479.04zm1.245 4.742c2.076 2.721 3.397 5.99 3.84 9.503.06.468.108 1.507.108 2.31 0 3.658-.923 7.007-2.782 10.1-.655 1.09-1.872 2.743-2.018 2.743-.049 0-.385-.388-.747-.861a20.089 20.089 0 01-3.76-8.417c-.267-1.4-.37-4.322-.2-5.732.334-2.796 1.187-5.362 2.578-7.755.602-1.037 2.01-2.943 2.142-2.9.052.017.43.471.84 1.01zm-13.821 3.845c1.618.646 3.505 1.735 4.85 2.799.336.267.627.496.645.51.019.014-.05.515-.153 1.113-.146.854-.186 1.628-.185 3.596.001 2.179.033 2.679.238 3.8.427 2.337 1.175 4.544 2.217 6.54.629 1.205.649 1.203-.89.078-4.501-3.288-7.296-8.334-7.753-13.997-.13-1.615.073-4.698.31-4.698.039 0 .363.117.72.26zm26.793.125c.83 5.097-.562 10.44-3.827 14.688-1.144 1.489-3.505 3.628-4.88 4.422l-.312.18.55-1.055c1.266-2.423 2.084-5.13 2.414-7.975.162-1.4.076-4.664-.159-6l-.18-1.024.333-.28c.69-.58 2.126-1.546 3.044-2.047.953-.52 2.625-1.278 2.84-1.288.063-.003.143.168.177.379zm-29.92 10.423c.255.076.353.22.674.987 1.111 2.661 2.572 4.848 4.647 6.956 1.241 1.26 2.646 2.415 3.855 3.167.435.27.772.51.75.533-.095.093-2.138-.216-3.26-.493-4.35-1.076-8.115-3.667-10.603-7.3-.69-1.008-1.738-2.982-1.877-3.538-.064-.257-.047-.27.427-.332.272-.035.563-.081.648-.103.29-.073 4.443.035 4.74.123zm37.782-.014c.37.089.338.225-.39 1.706-2.312 4.701-6.668 8.173-11.867 9.458-1.121.277-3.164.586-3.259.492-.022-.022.314-.26.747-.53 1.828-1.138 4.241-3.342 5.582-5.098 1.203-1.576 2.323-3.512 2.97-5.132.154-.387.314-.738.356-.782.164-.173 1.482-.257 3.478-.22 1.152.02 2.224.068 2.382.106zM49.785 53a21.295 21.295 0 0010.146 3.762 29 29 0 011.224.138c.19.051-1.743.685-2.83.927-2.817.628-6.04.45-8.754-.482-1.63-.56-4.764-2.332-4.67-2.64.063-.207 1.69-1.268 2.765-1.803.613-.306 1.132-.555 1.154-.555.022 0 .456.293.965.652zm36.803-.1c1.078.533 2.71 1.595 2.775 1.805.094.308-3.04 2.08-4.67 2.64-2.715.933-5.937 1.11-8.758.481-1.084-.242-3.016-.875-2.826-.926.055-.014.605-.076 1.223-.138 3.704-.369 7.384-1.748 10.265-3.849.421-.307.789-.56.817-.563.028-.003.556.244 1.174.55z" fill="#fff"/><g filter="url(#filter0_b_516_838)"><path d="M27.037 43L55 58.37v29.78L27.037 104 0 88.15V58.37L27.037 43z" fill="#000" fill-opacity=".01"/></g><defs><linearGradient id="paint0_linear_516_838" x1="67" y1="0" x2="67" y2="90" gradientUnits="userSpaceOnUse"><stop stop-color="#38A4F0"/><stop offset="1" stop-color="#3860F0"/></linearGradient><filter id="filter0_b_516_838" x="-16" y="27" width="87" height="93" filterUnits="userSpaceOnUse" color-interpolation-filters="sRGB"><feFlood flood-opacity="0" result="BackgroundImageFix"/><feGaussianBlur in="BackgroundImage" stdDeviation="8"/><feComposite in2="SourceAlpha" operator="in" result="effect1_backgroundBlur_516_838"/><feBlend in="SourceGraphic" in2="effect1_backgroundBlur_516_838" result="shape"/></filter></defs></svg>