<svg width="112" height="104" fill="none" xmlns="http://www.w3.org/2000/svg"><path d="M77.996 1.359l33.419 32.432-11.372 42.44-45.341 12.061-31.933-32.767 11.372-42.44L77.995 1.36z" fill="url(#paint0_linear_516_917)"/><path fill-rule="evenodd" clip-rule="evenodd" d="M65.776 17.03c-2.919.416-4.967 1.157-7.086 2.564-1.301.863-3.252 2.826-4.132 4.156-1.107 1.675-1.842 3.438-2.298 5.517l-.22.998-.032 16.794c-.022 11.241.002 16.98.07 17.355.245 1.323 1.236 2.692 2.398 3.31 1.207.644.663.618 12.755.618s11.549.026 12.756-.617c1.152-.614 2.145-1.977 2.393-3.285.064-.338.102-3.395.102-8.156 0-8.258-.011-8.452-.558-9.689-.546-1.234-1.633-2.431-2.747-3.024-.307-.164-3.515-1.434-7.13-2.823-3.614-1.389-6.843-2.667-7.174-2.841-.847-.445-2.015-1.639-2.488-2.545a8.406 8.406 0 01-.575-1.496c-.845-3.305 1.338-6.71 4.609-7.186 3.375-.492 6.43 2.164 6.43 5.589 0 2.102 1.562 4.066 3.667 4.615 2.628.684 5.336-1.088 5.872-3.843.233-1.198-.075-3.764-.669-5.58-.738-2.258-1.938-4.175-3.745-5.983-2.3-2.3-4.921-3.697-7.988-4.256-.862-.157-3.583-.281-4.21-.192zm4.064 3.442c5.231 1.181 9.015 5.605 9.393 10.982.06.853.044.992-.157 1.408-.318.657-.72.915-1.428.915-.418 0-.643-.055-.846-.207-.555-.414-.664-.668-.756-1.753-.107-1.264-.298-2.107-.684-3.013-1.457-3.425-4.914-5.59-8.582-5.377-1.355.079-2.105.282-3.412.923-4.154 2.038-5.991 6.804-4.36 11.312.469 1.296 1.187 2.387 2.294 3.483 1.488 1.473 1.727 1.588 9.48 4.563 5.137 1.972 6.906 2.694 7.257 2.96.296.226.594.588.823 1.005l.36.652v7.894c0 7.816-.003 7.897-.208 8.171a2.87 2.87 0 01-.484.484c-.276.206-.323.207-11.299.207-10.975 0-11.023-.001-11.299-.207a2.87 2.87 0 01-.484-.484l-.207-.277V47.39c0-15.946.009-16.763.187-17.577.807-3.679 3.135-6.69 6.47-8.37.91-.458 2.245-.899 3.176-1.05.386-.062.815-.132.953-.156.574-.098 2.998.05 3.813.235zM59.35 52.429c-.663.29-1.047 1.06-.904 1.818.088.469.589 1.023 1.044 1.155.248.073 2.797.097 7.91.077 7.438-.03 7.546-.033 7.82-.237.523-.391.69-.715.69-1.338 0-.482-.048-.64-.289-.957-.525-.688-.153-.66-8.462-.655-6.011.003-7.564.03-7.81.137zm0 6.422c-.663.289-1.047 1.059-.904 1.817.088.47.589 1.024 1.044 1.156.248.072 2.797.097 7.91.076 7.438-.03 7.546-.033 7.82-.237.523-.39.69-.714.69-1.338 0-.482-.048-.64-.289-.957-.525-.688-.153-.659-8.462-.654-6.011.003-7.564.03-7.81.137z" fill="#fff"/><g filter="url(#filter0_b_516_917)"><path d="M27.037 43L55 58.37v29.78L27.037 104 0 88.15V58.37L27.037 43z" fill="#000" fill-opacity=".01"/></g><defs><linearGradient id="paint0_linear_516_917" x1="78.647" y1="1.533" x2="55.353" y2="88.467" gradientUnits="userSpaceOnUse"><stop stop-color="#F0A638"/><stop offset="1" stop-color="#F07A38"/></linearGradient><filter id="filter0_b_516_917" x="-16" y="27" width="87" height="93" filterUnits="userSpaceOnUse" color-interpolation-filters="sRGB"><feFlood flood-opacity="0" result="BackgroundImageFix"/><feGaussianBlur in="BackgroundImage" stdDeviation="8"/><feComposite in2="SourceAlpha" operator="in" result="effect1_backgroundBlur_516_917"/><feBlend in="SourceGraphic" in2="effect1_backgroundBlur_516_917" result="shape"/></filter></defs></svg>