<svg width="113" height="104" fill="none" xmlns="http://www.w3.org/2000/svg"><path d="M88.916 5.692l23.886 39.976-21.968 38.05-46.918-.084-22.364-39.916L43.52 5.668l45.396.024z" fill="url(#paint0_linear_516_875)"/><path fill-rule="evenodd" clip-rule="evenodd" d="M54.026 32.287c-13.231 5.734-12.845 5.545-12.998 6.361a2.343 2.343 0 000 .719c.142.755.378.891 5.122 2.94l4.415 1.906.05 5.6.05 5.6.282.802c1.148 3.26 4.845 5.898 9.833 7.017 2.238.502 3.149.594 5.888.594 2.74 0 3.651-.092 5.889-.594 4.984-1.118 8.686-3.76 9.832-7.017l.283-.803.03-5.581.03-5.582.772-.348.773-.347.05 8.857c.05 8.749.053 8.86.257 9.133.393.527.714.69 1.349.69.634 0 .955-.163 1.348-.69.205-.274.207-.359.233-9.834l.027-9.556 2.066-.896c2.222-.964 2.574-1.211 2.703-1.897a2.32 2.32 0 00-.001-.713c-.154-.82.234-.63-12.898-6.32-8.455-3.665-12.33-5.297-12.642-5.326-.416-.038-1.437.386-12.743 5.285zm22.693 2.381c5.452 2.36 9.912 4.312 9.912 4.34 0 .027-.34.194-.755.37l-.757.319-9.2-1.154c-5.06-.634-9.351-1.13-9.536-1.102-.454.07-1.008.512-1.19.95-.313.747.09 1.776.811 2.07.172.07 3.135.474 6.584.898 3.45.425 6.348.803 6.443.84.115.047-1.834.937-5.923 2.707-3.352 1.45-6.189 2.662-6.305 2.692-.141.037-3.048-1.173-8.826-3.675-11.046-4.782-11.11-4.81-11.19-4.895-.071-.074 19.623-8.641 19.876-8.646.08-.002 4.605 1.927 10.056 4.286zm-16.283 13.82c5.352 2.32 6 2.578 6.371 2.532.227-.028 3.032-1.188 6.233-2.579 3.2-1.39 5.967-2.59 6.149-2.666l.33-.138-.03 4.69-.028 4.688-.323.657c-1.417 2.878-6.721 5.008-12.47 5.008-5.747 0-11.052-2.131-12.47-5.008l-.322-.657-.03-4.695-.028-4.696.33.14 6.288 2.724z" fill="#fff"/><g filter="url(#filter0_b_516_875)"><path d="M27.037 43L55 58.37v29.78L27.037 104 0 88.15V58.37L27.037 43z" fill="#000" fill-opacity=".01"/></g><defs><linearGradient id="paint0_linear_516_875" x1="89.5" y1="6.029" x2="44.5" y2="83.971" gradientUnits="userSpaceOnUse"><stop stop-color="#D083FF"/><stop offset="1" stop-color="#7B4FF8"/></linearGradient><filter id="filter0_b_516_875" x="-16" y="27" width="87" height="93" filterUnits="userSpaceOnUse" color-interpolation-filters="sRGB"><feFlood flood-opacity="0" result="BackgroundImageFix"/><feGaussianBlur in="BackgroundImage" stdDeviation="8"/><feComposite in2="SourceAlpha" operator="in" result="effect1_backgroundBlur_516_875"/><feBlend in="SourceGraphic" in2="effect1_backgroundBlur_516_875" result="shape"/></filter></defs></svg>