<svg width="112" height="104" fill="none" xmlns="http://www.w3.org/2000/svg"><path d="M110.641 55.996L78.21 89.415 35.77 78.043 23.708 32.702 56.475.769l42.44 11.371 11.726 43.856z" fill="url(#paint0_linear_516_861)"/><path fill-rule="evenodd" clip-rule="evenodd" d="M65.78 23.157c-1.274.376-.817-.043-10.518 9.633-6.207 6.19-9.014 9.044-9.12 9.272-.446.951.212 2.148 1.234 2.246.784.075.943-.001 1.87-.902l.85-.828.027 7.69c.03 8.547-.007 7.962.596 9.271 1.022 2.215 2.975 3.578 5.465 3.815 1.144.108 6.121.108 6.694 0 .54-.103.955-.415 1.206-.907l.186-.363v-13.72h5.765v13.72l.186.363c.251.492.666.804 1.206.906.572.109 5.386.109 6.529 0 1.396-.132 2.471-.546 3.529-1.358a6.551 6.551 0 002.525-4.813c.037-.626.02-.746-.15-1.071-.275-.524-.71-.843-1.214-.892-.602-.057-.929.031-1.306.354-.391.335-.544.71-.66 1.625-.148 1.157-.798 2.068-1.83 2.564l-.536.257-2.492.024-2.492.024V46.339l-.185-.362a1.655 1.655 0 00-1.206-.906c-.266-.051-2.18-.085-4.786-.085-2.607 0-4.52.034-4.786.085-.54.102-.955.413-1.207.906l-.185.362v13.728l-2.574-.024-2.574-.024-.536-.257c-.936-.45-1.623-1.333-1.81-2.328-.054-.283-.084-3.657-.084-9.308v-8.864l6.458-6.404c3.552-3.521 6.557-6.44 6.678-6.486.324-.123 1.003-.1 1.303.043.145.07 3.108 2.989 6.584 6.487l6.32 6.36.002 4.822.002 4.821.185.363c.102.2.328.476.502.615.292.232.366.252.96.252s.668-.02.96-.252c.174-.139.4-.416.502-.615.183-.358.185-.408.185-3.53v-3.166l.854.83c.93.905 1.088.981 1.873.906 1.02-.098 1.676-1.29 1.237-2.246-.218-.475-17.356-17.727-18.144-18.264-.814-.554-1.682-.806-2.75-.798-.536.004-.997.059-1.329.157z" fill="#fff"/><g filter="url(#filter0_b_516_861)"><path d="M27.037 43L55 58.37v29.78L27.037 104 0 88.15V58.37L27.037 43z" fill="#000" fill-opacity=".01"/></g><defs><linearGradient id="paint0_linear_516_861" x1="110.467" y1="56.647" x2="23.533" y2="33.353" gradientUnits="userSpaceOnUse"><stop stop-color="#40E3C6"/><stop offset="1" stop-color="#4DB7F3"/></linearGradient><filter id="filter0_b_516_861" x="-16" y="27" width="87" height="93" filterUnits="userSpaceOnUse" color-interpolation-filters="sRGB"><feFlood flood-opacity="0" result="BackgroundImageFix"/><feGaussianBlur in="BackgroundImage" stdDeviation="8"/><feComposite in2="SourceAlpha" operator="in" result="effect1_backgroundBlur_516_861"/><feBlend in="SourceGraphic" in2="effect1_backgroundBlur_516_861" result="shape"/></filter></defs></svg>