<svg width="50" height="50" fill="none" xmlns="http://www.w3.org/2000/svg"><path d="M36.392 16.205c0-1.095-.892-1.98-1.988-1.98a1.984 1.984 0 00-1.989 1.98c0 1.091.893 1.976 1.989 1.976a1.983 1.983 0 001.988-1.976z" fill="#253B63"/><path d="M39.04 31.658c-.073 1.606-.343 2.48-.567 3.059a5.088 5.088 0 01-1.243 1.895 5.06 5.06 0 01-1.9 1.23c-.583.226-1.463.495-3.077.572-1.745.077-2.262.093-6.687.093-4.42 0-4.941-.016-6.686-.093-1.614-.077-2.49-.346-3.073-.572a5.065 5.065 0 01-1.903-1.23 5.021 5.021 0 01-1.24-1.895c-.224-.58-.498-1.453-.567-3.06-.085-1.736-.101-2.26-.101-6.655 0-4.404.015-4.923.1-6.66.07-1.607.344-2.479.568-3.064a5.013 5.013 0 011.24-1.89 5.121 5.121 0 011.903-1.233c.583-.227 1.459-.493 3.073-.57 1.745-.076 2.266-.096 6.686-.096 4.425 0 4.942.02 6.687.096 1.614.077 2.494.342 3.077.57a5.13 5.13 0 011.9 1.232 5.08 5.08 0 011.243 1.891c.224.585.494 1.457.567 3.064.081 1.737.1 2.256.1 6.66 0 4.396-.019 4.919-.1 6.656zm2.98-13.451c-.08-1.756-.359-2.956-.772-4a8.026 8.026 0 00-1.907-2.921 8.143 8.143 0 00-2.93-1.9c-1.053-.406-2.254-.687-4.019-.763-1.764-.085-2.328-.1-6.826-.1-4.493 0-5.06.015-6.825.1-1.76.076-2.96.357-4.02.764a8.162 8.162 0 00-2.925 1.899 8.092 8.092 0 00-1.911 2.92c-.41 1.046-.688 2.245-.773 4-.076 1.757-.096 2.32-.096 6.796 0 4.473.02 5.034.096 6.79.085 1.753.364 2.952.773 4.002a8.078 8.078 0 001.91 2.917 8.162 8.162 0 002.927 1.902c1.058.407 2.258.684 4.019.764 1.764.081 2.332.1 6.825.1 4.498 0 5.062-.019 6.826-.1 1.765-.08 2.965-.357 4.02-.764a8.143 8.143 0 002.93-1.902 8.013 8.013 0 001.906-2.917c.413-1.05.692-2.249.773-4.001.08-1.757.1-2.318.1-6.79 0-4.478-.02-5.04-.1-6.796z" fill="#253B63"/><path d="M25.567 30.49c-3.046 0-5.517-2.457-5.517-5.488 0-3.037 2.471-5.496 5.517-5.496 3.046 0 5.52 2.459 5.52 5.496 0 3.031-2.474 5.487-5.52 5.487zm0-13.955c-4.695 0-8.497 3.793-8.497 8.467 0 4.669 3.802 8.458 8.497 8.458s8.5-3.79 8.5-8.458c0-4.674-3.805-8.467-8.5-8.467z" fill="#253B63"/></svg>