<svg width="80" height="80" fill="none" xmlns="http://www.w3.org/2000/svg"><path fill-rule="evenodd" clip-rule="evenodd" d="M57.049 5.225c-2.007.436-4.19 1.362-5.767 2.447-1.92 1.321-4.055 3.8-5.15 5.984-.584 1.165-1.239 3.214-1.38 4.32-.132 1.04-.212 1.14-1.1 1.389-.653.182-.853.371-2.207 2.09a256.968 256.968 0 01-1.584 1.998c-.053.06-1.08-.168-2.283-.507-1.203-.339-2.437-.617-2.742-.617-.643-.002-.993.327-2.791 2.616-.624.795-1.2 1.445-1.28 1.445-.08 0-1.2-.293-2.49-.652-2.927-.815-2.814-.853-4.76 1.631l-1.406 1.797-1.52-.763c-.836-.42-1.708-.763-1.937-.763-.462 0-3.129.82-3.806 1.17-.261.136-.54.49-.706.895-.634 1.553-2.578 7.573-2.578 7.982 0 .891.581 1.205 3.937 2.127l3.076.845 14.954-4.873 14.953-4.873 1.032.99A14.876 14.876 0 0055.77 35.5l1.317.38.295 1.076c.161.591.62 1.743 1.02 2.56 1.28 2.617 3.66 4.642 6.144 5.227 6.523 1.538 10.636-4.876 8.06-12.572l-.497-1.484.947-1.406a16.734 16.734 0 002.287-5.051c.482-1.78.484-5.36.005-7.263-.77-3.055-2.218-5.566-4.443-7.702-2.18-2.094-4.709-3.424-7.674-4.036-1.47-.304-4.79-.306-6.182-.004zm7.05 3.462c4.066 1.42 7.03 4.606 8.184 8.797.426 1.548.394 4.695-.063 6.297-.351 1.228-1.056 2.779-1.637 3.602l-.315.446-.37-.474c-.559-.713-2.173-1.874-3.509-2.523l-1.188-.578.362-.613c.199-.337.479-1.07.621-1.627.72-2.808-.673-5.752-3.343-7.066-.972-.479-1.14-.511-2.681-.511-1.532 0-1.714.034-2.66.498-1.667.817-2.758 2.063-3.277 3.744-.58 1.88-.277 3.812.86 5.462.64.929 1.2 1.401 2.339 1.97 1.09.545 1.5.621 3.275.61 2.637-.017 4.697.745 6.448 2.382.54.504.98.962.98 1.017 0 .055-.44.397-.977.759-3.96 2.667-8.987 2.843-13.242.463-.791-.442-1.646-1.128-2.633-2.114-.804-.803-1.655-1.526-1.89-1.609-.363-.126-2.723.6-15.55 4.78-8.317 2.71-15.233 4.929-15.37 4.929-.24 0-3.167-.784-3.29-.881-.098-.079 1.557-4.806 1.755-5.01.1-.102.498-.27.884-.373.694-.183.728-.173 2.459.695 1.739.873 2.426 1.038 3.015.723.163-.088.967-1.002 1.788-2.032.82-1.03 1.551-1.872 1.625-1.872.073 0 1.128.28 2.344.625 1.217.343 2.334.624 2.483.624.512-.002 1.11-.549 2.39-2.187a76.728 76.728 0 011.46-1.835c.142-.153.637-.063 2.363.43 2.265.648 2.863.731 3.352.469.16-.085 1.058-1.123 1.997-2.305l1.707-2.15 1.128-.363c1.384-.446 1.646-.801 1.786-2.414.448-5.193 4.23-9.675 9.322-11.049.981-.264 1.54-.307 3.438-.264 2.046.047 2.397.098 3.63.528zm-2.116 9.365c1.23.994 1.559 2.413.868 3.744-.401.772-1.293 1.587-1.877 1.714-.235.052-.512.12-.616.152-.404.123-1.804-.376-2.262-.806-1.65-1.55-1.295-4.044.732-5.135.334-.18.77-.238 1.515-.201.893.044 1.132.121 1.64.532zm8.192 17.428c.303 2.204-.288 4.474-1.435 5.51-1.606 1.451-4.516.965-6.336-1.059-.675-.75-1.935-3.075-1.935-3.568 0-.188.277-.259 1.289-.332 2.237-.161 5.168-1.2 7.07-2.507l.781-.537.2.647c.111.356.275 1.187.366 1.846zM6.777 42.673c-.836.27-1.953 1.246-2.465 2.155l-.484.859v23.125l.484.86c.568 1.007 1.675 1.913 2.704 2.212.497.145 1.704.209 3.921.207 3.002-.002 3.254-.025 4-.36.899-.405 1.947-1.394 2.363-2.23l.278-.56 6.563 2.868c7.273 3.18 8.07 3.48 10.594 3.992 1.58.32 2.182.355 6.203.351 4.703-.004 5.676-.093 10.39-.95 5.7-1.037 13.118-3.182 18.783-5.432 2.607-1.036 3.826-1.716 4.776-2.667 1.319-1.318 1.697-2.925 1.047-4.437-.458-1.063-1.734-2.236-2.927-2.688-1.554-.59-3.12-.395-9.365 1.166-8.823 2.205-13.59 3.182-16.22 3.324-1.545.083-1.596.075-4.569-.79-2.719-.791-4.572-1.506-4.572-1.765 0-.18 1.944.106 3.438.507 1.828.49 5.608.682 7.68.388 5.977-.847 9.894-3.573 9.897-6.887.001-1.376-.39-2.109-1.473-2.764-1.15-.694-1.917-.82-6.031-.989-6.105-.25-7.727-.729-10.798-3.183-2.76-2.206-5.474-3.624-8.389-4.38-2.37-.617-3.8-.761-6.64-.674-2.815.087-4.502.37-7.02 1.18l-1.428.46-.154-.442c-.241-.693-1.428-1.876-2.285-2.277-.75-.35-.923-.364-4.297-.35-1.933.007-3.735.085-4.004.171zm7.394 3.313l.438.377.039 10.678c.03 8.34-.005 10.763-.159 11.068-.41.815-1.021.955-3.942.905-2.833-.049-3.17-.132-3.505-.865-.246-.54-.232-21.345.015-21.808.366-.688.54-.722 3.676-.727 2.949-.005 3.007.001 3.438.372zm15.925 1.271a18.979 18.979 0 018.311 3.693c4.482 3.49 6.164 4.045 13.144 4.343 4.808.205 4.982.253 4.48 1.225-.556 1.073-2.413 2.13-4.937 2.808-1.328.357-1.79.4-4.375.411-2.691.012-3.01-.018-4.61-.432-3.2-.827-5.376-.685-6.557.43-1.215 1.145-1.006 3.156.461 4.445 1.092.958 2.227 1.415 6.878 2.769l2.5.727 1.953-.09c3.088-.143 8.198-1.167 17.343-3.474 2.825-.713 5.093-1.2 5.86-1.256 1.143-.084 1.296-.06 1.795.28.3.206.612.564.694.797.128.364.084.493-.31.908-.637.669-1.419 1.102-3.497 1.936-7.35 2.951-16.188 5.256-23.369 6.095-2.577.3-7.456.305-9.532.007-2.549-.365-3.872-.844-11.33-4.106l-7.107-3.11-.04-8.391-.041-8.392.743-.319c1.077-.462 3.208-1.06 4.65-1.303 1.75-.296 5.201-.296 6.893-.001z" fill="#008AEC"/></svg>