<svg width="80" height="80" fill="none" xmlns="http://www.w3.org/2000/svg"><path fill-rule="evenodd" clip-rule="evenodd" d="M27.076 4.184c-1.605.51-2.89 1.646-3.617 3.196-.397.846-.414.996-.462 4.12l-.05 3.242-7.997.005c-4.398.003-8.482.068-9.075.144A6.82 6.82 0 00.89 18.194c-.931 1.589-.899.722-.853 22.58l.042 19.984.34.83c.778 1.897 2.342 3.348 4.247 3.94.926.287 1.462.308 7.921.308h6.928l.409-.352c.272-.234.438-.566.495-.993.075-.557.024-.711-.387-1.172l-.474-.53-7.005-.078c-7.657-.085-7.408-.054-8.39-1.037-1.034-1.034-.955.65-1-21.167L3.12 20.725l.44-.84c.54-1.037 1.378-1.65 2.543-1.864.574-.105 10.695-.144 29.844-.117 27.928.04 28.995.052 29.522.333a4.282 4.282 0 011.772 1.74c.334.62.338.711.383 10.995l.045 10.37-.436-.08c-.24-.044-.999-.199-1.686-.343-1.671-.352-4.734-.36-6.54-.017-7.852 1.492-13.585 7.738-14.482 15.778-.168 1.512-.029 3.999.305 5.44l.135.581-6.48.044-6.48.044-.455.51c-.251.281-.456.689-.456.907 0 .518.393 1.266.772 1.47.194.103 2.786.16 7.262.16h6.96l.416.82c1.65 3.263 5.146 6.507 8.647 8.024 8.072 3.499 17.574.49 22.201-7.028.95-1.544 1.623-3.141 2.142-5.086.35-1.312.4-1.812.403-4.074.004-2.685-.151-3.753-.845-5.812-.427-1.267-1.374-3.158-2.197-4.386-.908-1.355-3.586-3.96-4.937-4.802l-1.129-.703-.007-10.547c-.004-6.084-.072-11.01-.162-11.64a6.677 6.677 0 00-5.698-5.699c-.605-.085-4.67-.156-9.102-.158l-8.007-.003-.002-2.46c-.001-3.01-.182-4.208-.817-5.398-.571-1.073-1.422-1.863-2.619-2.435l-.86-.41-7.89-.032c-6.23-.025-8.029.012-8.549.177zm16.117 3.212c.35.17.811.57 1.026.887.376.556.392.682.444 3.518l.054 2.941H26.076l.048-3.02c.048-3.002.05-3.024.467-3.569.826-1.082.641-1.06 8.711-1.063 6.924-.004 7.285.01 7.89.306zM57.4 28.022c-.505.204-.837.782-.837 1.455 0 .635.266.986 1.406 1.853.62.471.675.432-1.172.835C45.945 34.53 37.39 43.817 35.83 54.923c-.214 1.524-.223 1.901-.053 2.312.39.94 1.739 1.255 2.426.568.421-.422.438-.48.767-2.67 1.182-7.878 6.287-14.739 13.533-18.187 1.748-.831 4.744-1.805 6.11-1.987l.832-.11-.638.767c-1.195 1.439-1.287 1.991-.464 2.814.569.57 1.142.677 1.761.33.187-.104 1.224-1.3 2.305-2.658 1.676-2.105 1.965-2.55 1.965-3.018 0-.302-.073-.686-.162-.853-.131-.245-3.695-3-5.302-4.1-.417-.284-.976-.325-1.511-.109zm3.225 16.424c0 .524.1.74.551 1.191.502.502.61.544 1.21.463.9-.12 1.364-.669 1.364-1.61v-.704l.742.107c3.741.54 7.606 3.027 9.852 6.34 1.127 1.663 2.084 4.048 2.311 5.758l.104.783h-.528c-1.264.002-2.124 1.185-1.624 2.238.286.603.788.887 1.572.887.489 0 .54.041.54.443 0 .794-.6 2.817-1.242 4.186-1.48 3.157-3.876 5.564-7.05 7.082-1.334.637-3.421 1.257-4.233 1.257-.412 0-.444-.043-.444-.613 0-.738-.566-1.497-1.21-1.62-.978-.187-1.915.672-1.915 1.757 0 .413-.056.476-.42.476-.672 0-2.373-.472-3.671-1.019-4.163-1.753-7.508-5.696-8.561-10.091-.442-1.844-.44-1.858.319-1.858.797 0 1.172-.199 1.472-.779.348-.673.29-1.188-.199-1.734-.336-.377-.603-.506-1.178-.57l-.743-.084.103-.722c.058-.396.279-1.283.492-1.97 1.544-4.987 5.775-8.873 10.878-9.993 1.514-.332 1.508-.333 1.508.399zm.742 4.528c-.67.39-.742.869-.742 4.934v3.868L58.36 60.06c-2.155 2.173-2.265 2.314-2.265 2.907 0 1.053.972 1.787 1.944 1.466.31-.103 1.464-1.14 3.103-2.789l2.61-2.625v-9.3l-.458-.457c-.348-.349-.598-.456-1.054-.452-.33.002-.721.076-.872.164zm-36.054 13.91c-1.014.398-1.266 1.71-.481 2.495.763.764 1.971.55 2.436-.43.337-.71.086-1.516-.604-1.937-.545-.332-.775-.354-1.351-.128z" fill="#008AEC"/></svg>