<svg width="80" height="80" fill="none" xmlns="http://www.w3.org/2000/svg"><path fill-rule="evenodd" clip-rule="evenodd" d="M44.844.213c-1.052.382-1.8.96-3.444 2.66-1.674 1.733-2.15 2.572-2.287 4.028l-.09.975-1.035.484c-5.075 2.373-13.778 11.078-16.223 16.226l-.55 1.157h-.758c-1.465 0-2.352.492-4.307 2.385-2.22 2.151-2.782 3.136-2.782 4.88 0 .942.079 1.278.496 2.122.435.881 1.284 1.788 6.949 7.43 6.018 5.993 6.514 6.448 7.357 6.757a5.277 5.277 0 003.66-.006c.748-.28 1.221-.648 2.742-2.137 2.085-2.04 2.568-2.824 2.715-4.407l.095-1.008.87-.384c1.084-.479 2.835-1.612 4.539-2.94l1.306-1.017.647.763c1.554 1.834 6.403 7.353 9.936 11.311 8.789 9.845 12.748 14.074 14.21 15.18 3.56 2.697 6.51 2.59 9.298-.333 2.522-2.644 2.382-5.66-.428-9.204-1.333-1.683-14.28-13.46-24.82-22.576l-2.136-1.85.894-1.125c1.27-1.598 2.27-3.142 2.916-4.501l.557-1.174.877-.02c1.425-.033 2.355-.568 4.273-2.459 1.788-1.761 2.404-2.68 2.644-3.949.179-.943-.028-2.28-.496-3.217-.196-.39-2.729-3.047-6.666-6.99C50.238 1.698 49.34.86 48.53.492c-1.168-.532-2.678-.646-3.686-.28zm8.554 9.493l6.29 6.28v.68c0 .644-.073.754-1.368 2.08-1.496 1.533-1.952 1.84-2.722 1.84-.464 0-1.077-.564-6.664-6.132-3.385-3.373-6.246-6.344-6.358-6.602-.35-.803-.122-1.29 1.282-2.748 1.457-1.51 2.075-1.904 2.783-1.768.355.068 1.987 1.606 6.757 6.37zm-7.087 6.957c6.563 6.565 6.062 5.774 4.905 7.752-2.117 3.616-6.84 8.676-11.087 11.879-1.522 1.148-3.377 2.31-3.96 2.48-.254.074-1.403-.998-6.075-5.67-6.68-6.682-6.194-5.82-4.662-8.289 2.414-3.888 7.709-9.336 11.877-12.217 1.416-.979 2.68-1.692 3.004-1.696.13-.001 2.828 2.591 5.998 5.761zM21.375 29.248c.232.124 3.111 2.919 6.398 6.212 4.087 4.095 6.018 6.135 6.107 6.456.234.835-.05 1.348-1.578 2.846-1.479 1.45-1.962 1.722-2.732 1.536-.286-.069-2.498-2.171-6.64-6.312-5.977-5.973-6.211-6.23-6.211-6.796 0-.823.28-1.27 1.59-2.542 1.754-1.702 2.153-1.884 3.066-1.4zm29.927 6.3c5.245 4.525 15.703 13.9 21.268 19.063 3.16 2.933 4.319 4.676 4.053 6.095-.11.58-1.274 1.96-1.948 2.31-1.33.687-2.952-.066-5.386-2.5-2.78-2.779-13.62-14.806-20.284-22.507l-2.434-2.813.968-.976c.532-.537.995-.977 1.03-.977.034 0 1.264 1.037 2.733 2.305zM3.494 66.85c-.757.22-1.945 1.086-2.511 1.832-.85 1.12-1.022 2.021-.957 5.005l.056 2.602.532.984c.59 1.094 1.077 1.564 2.26 2.189l.798.42H42.89l.823-.371c1.07-.484 2.259-1.775 2.64-2.869.234-.672.287-1.305.287-3.478 0-2.555-.016-2.69-.42-3.55-.548-1.17-1.621-2.203-2.716-2.612-.853-.32-1.035-.322-20.19-.308-11.081.008-19.54.074-19.82.156zm39.008 3.371c.675.4.78.819.78 3.15 0 1.73-.05 2.216-.256 2.509-.58.828.131.8-19.755.8-20.46 0-19.233.063-19.743-1.013-.298-.627-.346-3.812-.07-4.604.097-.279.396-.64.664-.804.472-.288 1.084-.297 19.213-.298 17.191 0 18.762.021 19.166.26z" fill="#008AEC"/></svg>