<svg width="90" height="90" fill="none" xmlns="http://www.w3.org/2000/svg"><path d="M44.326 0L85 22.677v43.937L44.326 90 5 66.614V22.677L44.326 0z" fill="url(#paint0_linear_425_1075)"/><path fill-rule="evenodd" clip-rule="evenodd" d="M36.433 21.474c-1.672.76-3.345 2.649-3.737 4.222-.185.743-.612 1.068-1.83 1.394-4.025 1.076-6.683 4.471-6.994 8.934-.16 2.283-.36 2.913-1.253 3.939-2.52 2.895-2.428 7.08.234 10.57.72.944.937 1.69.943 3.24.018 4.374 3.317 8.5 7.62 9.533.636.152 1.084.576 1.231 1.16.581 2.316 3.94 4.742 6.589 4.76 1.52.01 3.754-.886 4.907-1.97l.857-.805.858.805c1.153 1.084 3.386 1.98 4.907 1.97 2.648-.018 6.007-2.444 6.588-4.76.147-.584.596-1.008 1.23-1.16 4.304-1.032 7.603-5.16 7.62-9.533.007-1.55.225-2.296.944-3.24 2.662-3.49 2.755-7.675.234-10.57-.893-1.026-1.094-1.656-1.253-3.94-.31-4.462-2.969-7.857-6.994-8.933-1.218-.326-1.645-.651-1.83-1.394-.63-2.526-3.8-4.92-6.54-4.938-1.52-.01-3.753.886-4.906 1.97l-.858.805-.858-.806c-2.082-1.957-5.085-2.444-7.709-1.253zm5.398 2.977c1.366 1.107 1.654 2.167 1.654 6.1v3.79l-1.61-.92c-1.848-1.056-3.02-1.172-3.689-.366-.714.86-.228 1.563 1.772 2.558 1.002.5 2.206 1.475 2.675 2.169.797 1.18.852 1.659.852 7.433v6.172l-1.61-.92c-1.848-1.057-3.02-1.173-3.689-.367-.714.861-.228 1.563 1.772 2.559 2.876 1.432 3.527 2.723 3.527 6.997 0 3.716-.3 4.78-1.654 5.877-1.074.87-3.951.87-5.025 0-1.806-1.463-2.209-4.204-.87-5.907.891-1.132.849-2.049-.121-2.66-.466-.293-.85-.3-1.292-.02-.553.348-1.778 2.272-2.142 3.364-.215.646-3.294-.978-4.227-2.23-2.071-2.776-2.106-5.735-.104-8.756.896-1.355 1.08-1.914.783-2.388-.68-1.084-1.885-.953-2.816.306-.47.637-.967 1.159-1.103 1.159-.497 0-1.126-1.972-1.123-3.522.004-2.694 1.734-4.6 4.91-5.407 1.539-.39 1.716-.548 1.716-1.53 0-1.07-.045-1.094-1.989-1.078-2.148.018-2.189-.038-1.593-2.182.747-2.69 3.837-5.19 6.442-5.212 1.267-.011 1.875-.664 1.875-2.016 0-.745.415-1.514 1.288-2.387 1.074-1.074 1.56-1.286 2.935-1.279.986.005 1.972.271 2.456.663zm11.73.616c.872.873 1.288 1.642 1.288 2.387 0 1.352.607 2.005 1.875 2.016 2.605.022 5.694 2.522 6.441 5.212.596 2.144.556 2.2-1.593 2.182-1.944-.016-1.989.008-1.989 1.078 0 .982.177 1.14 1.717 1.53 3.175.806 4.905 2.712 4.91 5.407.002 1.55-.627 3.522-1.124 3.522-.135 0-.632-.522-1.103-1.16-.931-1.258-2.137-1.389-2.816-.305-.297.474-.115 1.03.772 2.37 1.92 2.898 1.955 5.479.115 8.473-.801 1.303-4.186 3.243-4.429 2.538-.387-1.126-1.596-3.024-2.148-3.372-.441-.278-.826-.272-1.291.021-.97.611-1.013 1.528-.123 2.66.865 1.1 1.03 3.119.362 4.425-.743 1.454-1.939 2.136-3.743 2.136-3.196 0-4.167-1.521-4.167-6.53 0-4.275.651-5.566 3.527-6.998 2-.996 2.486-1.698 1.772-2.559-.67-.806-1.841-.69-3.689.367l-1.61.92v-6.172c0-5.774.055-6.253.852-7.433.47-.694 1.673-1.67 2.675-2.169 2-.995 2.486-1.697 1.772-2.558-.67-.806-1.841-.69-3.689.366l-1.61.92v-3.79c0-5.21.934-6.747 4.11-6.763 1.375-.007 1.861.205 2.936 1.28z" fill="#fff"/><defs><linearGradient id="paint0_linear_425_1075" x1="45" y1="0" x2="45" y2="90" gradientUnits="userSpaceOnUse"><stop stop-color="#38A4F0"/><stop offset="1" stop-color="#3860F0"/></linearGradient></defs></svg>