<svg width="90" height="90" fill="none" xmlns="http://www.w3.org/2000/svg"><path d="M44.326 0L85 22.677v43.937L44.326 90 5 66.614V22.677L44.326 0z" fill="url(#paint0_linear_516_285)"/><path fill-rule="evenodd" clip-rule="evenodd" d="M43.94 21.212c-.327.327-.455 2.835-.455 8.892v8.437l-1.118.578c-.614.318-1.187.578-1.271.578-.085 0-.248-1.363-.362-3.028-.35-5.11-2.06-7.016-6.275-7.001-2.074.007-2.89.208-4.553 1.122-3.855 2.119-7.507 7.472-8.593 12.598-.802 3.782-.787 22.036.02 23.594.89 1.722 2.556 2.397 5.275 2.135 4.55-.438 8.101-2.436 10.898-6.134 2.408-3.183 2.964-5.458 3.22-13.186l.223-6.756 2.026-.993L45 41.054l2.083 1.022 2.084 1.022.003 4.455c.003 6.296.533 10.283 1.688 12.725 1.954 4.13 5.665 7.288 9.85 8.377 4.2 1.094 6.813.545 7.96-1.673.806-1.558.82-19.812.019-23.594-1.087-5.129-4.93-10.745-8.684-12.69-2.576-1.335-6.438-1.45-8.061-.242-1.768 1.316-2.449 2.898-2.676 6.213-.114 1.665-.277 3.028-.362 3.028-.084 0-.657-.26-1.272-.578l-1.117-.578v-8.437c0-8.654-.112-9.346-1.515-9.346-.333 0-.81.204-1.06.454zM37.03 33.33c.666.715.773 1.33.773 4.464v3.635l-2.47 1.218c-2.158 1.064-2.85 1.218-5.503 1.218-2.461 0-3.08.117-3.274.62-.472 1.231.412 1.836 2.858 1.955 1.28.061 2.324.232 2.32.378-.01.239-.415 2.177-.949 4.528-.164.724-.442.852-1.845.852-2.962 0-3.52 2.193-.717 2.816l1.592.353-.078 2.487-.078 2.488h2.273l1.043-5.114 1.449-7.109c.363-1.79.562-2.075 1.925-2.77l1.52-.776-.128 6.18c-.121 5.86-.182 6.29-1.18 8.325-2.158 4.393-5.863 6.935-10.122 6.942l-2.462.004-.113-10.417c-.128-11.895.126-13.61 2.57-17.34 2.629-4.01 5.069-5.76 8.04-5.764 1.35-.001 1.973.2 2.557.827zm20.994-.467c1.483.564 4.011 3.023 5.556 5.404 2.43 3.747 2.684 5.462 2.555 17.34l-.112 10.417-2.462-.004c-4.218-.007-7.99-2.601-10.135-6.97-.983-2-1.047-2.457-1.167-8.297l-.128-6.18 1.52.775c1.363.696 1.561.981 1.925 2.771l1.449 7.11 1.043 5.113h2.273l-.08-2.511-.08-2.51 1.475-.237c1.03-.164 1.55-.47 1.721-1.01.379-1.194-.465-1.876-2.318-1.876-1.402 0-1.68-.128-1.844-.852-.547-2.408-.94-4.292-.948-4.546-.005-.156.992-.284 2.217-.284 2.443 0 3.31-.562 2.893-1.876-.221-.695-.556-.775-3.244-.775-2.61 0-3.316-.158-5.467-1.218l-2.47-1.218v-3.635c0-3.135.107-3.75.773-4.464.847-.909 3.297-1.135 5.055-.467z" fill="#fff"/><defs><linearGradient id="paint0_linear_516_285" x1="45" y1="0" x2="45" y2="90" gradientUnits="userSpaceOnUse"><stop stop-color="#F0A638"/><stop offset="1" stop-color="#F07A38"/></linearGradient></defs></svg>