<svg width="90" height="90" fill="none" xmlns="http://www.w3.org/2000/svg"><path d="M44.326 0L85 22.677v43.937L44.326 90 5 66.614V22.677L44.326 0z" fill="url(#paint0_linear_516_318)"/><path fill-rule="evenodd" clip-rule="evenodd" d="M32.576 21.22c-.311.311-.455 2.163-.455 5.871v5.417h-2.386c-1.351 0-2.584.197-2.841.454-.614.614-.614 6.81 0 7.425.255.255 1.477.454 2.784.454h2.33l.216 4.262c.279 5.507 1.484 9.422 4.107 13.345 3.96 5.92 10.36 9.849 17.325 10.637 3.514.397 5.555-.05 7.26-1.591 2.613-2.36 2.713-2.999 2.557-16.262-.157-13.374-.263-13.938-3.21-17.216-1.922-2.138-4.065-3.513-6.456-4.143l-1.61-.425v-3.887c0-2.517-.16-4.047-.455-4.34-.616-.618-7.186-.618-7.803 0-.291.29-.454 1.784-.454 4.166 0 2.041-.155 3.712-.345 3.712-.19 0-.787-.525-1.326-1.166-.842-1-.98-1.525-.98-3.712 0-1.476-.192-2.738-.455-3-.617-.618-7.187-.618-7.803 0zm5.227 3.656c0 2.688 1.604 5.381 3.903 6.554 1.28.653 2.542.844 6.888 1.04 4.895.222 5.464.325 7.1 1.285.98.573 2.232 1.635 2.784 2.359 1.922 2.519 2.018 3.271 2.036 15.956l.016 11.797-1.099 1.177c-1.023 1.095-1.277 1.176-3.708 1.176-5.419 0-10.123-2.044-14.36-6.239-4.366-4.323-6.212-9.002-6.212-15.75 0-3.317.02-3.39.901-3.39 1.277 0 1.689.679 1.823 3.003.083 1.434.313 2.155.78 2.449 2.586 1.622 2.977-5.309.413-7.325-.865-.681-1.524-.778-5.293-.778H29.47v-3.03h4.236c3.543 0 4.508.13 5.896.803 2.54 1.229 3.626 3.16 3.872 6.878.154 2.332.354 3.132.863 3.451.914.574 1.954-.126 2.108-1.417.106-.884.288-1.003 1.526-1.003.773 0 1.803.278 2.288.617 1.046.733 1.938 2.7 1.938 4.276 0 1.018-.272 1.273-2.746 2.57-2.293 1.2-2.746 1.594-2.746 2.385 0 1.266 1.186 1.416 3.175.401.841-.429 1.698-.78 1.903-.78.206 0 .426.878.489 1.95.13 2.204.93 3.112 1.977 2.244.495-.412.6-1.427.6-5.825 0-4.654-.102-5.536-.804-6.986-1.061-2.193-3.178-3.584-5.78-3.8l-1.994-.165-.447-1.673c-.93-3.478-5.066-6.578-8.774-6.578h-1.898v-8.712h1.325c1.206 0 1.326.098 1.326 1.08zm11.364 1.76v2.842h-2.652v-5.682h2.652v2.84z" fill="#fff"/><defs><linearGradient id="paint0_linear_516_318" x1="27" y1="-16" x2="51" y2="104.5" gradientUnits="userSpaceOnUse"><stop stop-color="#F03838"/><stop offset="1" stop-color="#C26EDF"/></linearGradient></defs></svg>