<svg width="90" height="90" fill="none" xmlns="http://www.w3.org/2000/svg"><path d="M44.326 0L85 22.677v43.937L44.326 90 5 66.614V22.677L44.326 0z" fill="url(#paint0_linear_516_279)"/><path fill-rule="evenodd" clip-rule="evenodd" d="M43.253 21.411c-1.496.64-2.42 2.26-2.42 4.245 0 1.347-.145 1.843-.543 1.843-.299 0-1.584.451-2.856 1.003l-2.313 1.003-1.055-1.01c-4.386-4.203-10.085 1.477-5.883 5.863l1.002 1.045-1.155 2.771-1.155 2.772-1.925.2c-2.736.284-4.003 1.6-4.003 4.155 0 2.557 1.267 3.872 4.003 4.157l1.925.2 1.155 2.77 1.155 2.772-1.002 1.045c-4.194 4.378 1.495 10.068 5.872 5.874l1.066-1.02 2.313 1.003c1.272.551 2.557 1.003 2.856 1.003.398 0 .543.497.543 1.864 0 3.307 2.823 5.38 5.702 4.188 1.787-.74 2.632-2.091 2.632-4.21 0-1.347.146-1.842.543-1.842.299 0 1.584-.452 2.856-1.003l2.313-1.004 1.055 1.01c4.386 4.203 10.085-1.477 5.883-5.863L60.815 55.2l1.155-2.771 1.155-2.771 1.891-.197c2.893-.301 4.573-2.38 4.075-5.04-.352-1.875-1.799-3.042-4.065-3.278l-1.9-.197-1.156-2.772-1.155-2.771 1.002-1.045c4.194-4.378-1.495-10.068-5.872-5.874l-1.066 1.02-2.313-1.003c-1.272-.551-2.557-1.003-2.856-1.003-.4 0-.543-.5-.543-1.887 0-1.525-.2-2.113-1.042-3.054-1.127-1.26-3.371-1.789-4.872-1.146zm2.808 3.133c.25.25.454.846.454 1.326 0 .764-.187.87-1.515.87-1.328 0-1.515-.106-1.515-.87 0-1.015.652-1.78 1.515-1.78.333 0 .81.204 1.06.454zm-13.737 6c.683.754.676.794-.306 1.775-.982.982-1.022.989-1.776.306-.87-.787-.994-1.724-.318-2.4.676-.675 1.613-.551 2.4.318zm19.207.64c3.302 1.546 6.028 4.268 7.6 7.587 1.122 2.367 1.21 2.843 1.21 6.53 0 3.688-.088 4.164-1.21 6.531a16.121 16.121 0 01-7.6 7.601c-2.367 1.121-2.844 1.21-6.53 1.21-3.688 0-4.165-.089-6.532-1.21a16.121 16.121 0 01-7.6-7.6c-1.122-2.368-1.21-2.844-1.21-6.532 0-3.687.088-4.163 1.21-6.53 1.931-4.077 5.31-7.011 9.775-8.49.931-.308 2.83-.461 4.924-.397 2.904.09 3.788.282 5.963 1.3zm8.545-.958c.676.675.552 1.612-.318 2.399-.754.683-.794.676-1.776-.306-.982-.981-.988-1.021-.305-1.776.786-.87 1.723-.993 2.399-.317zM48.56 37.877c-1.056 1.056-1.288 1.575-1.288 2.88 0 1.303.232 1.822 1.288 2.878 1.055 1.056 1.574 1.288 2.878 1.288 1.305 0 1.824-.233 2.88-1.288 1.055-1.056 1.287-1.575 1.287-2.879s-.232-1.823-1.288-2.879c-1.055-1.055-1.574-1.288-2.879-1.288-1.304 0-1.823.233-2.878 1.288zm-11.542 1.585c-.664.8-.002 1.862 1.163 1.862 1.164 0 1.827-1.061 1.163-1.862-.274-.33-.798-.6-1.163-.6-.366 0-.89.27-1.163.6zm15.34.374c.328.328.596.742.596.92 0 .42-1.095 1.515-1.516 1.515-.42 0-1.515-1.094-1.515-1.515 0-.42 1.095-1.515 1.515-1.515.179 0 .593.268.92.595zm-25.92 5.465c0 1.329-.107 1.516-.87 1.516-1.015 0-1.781-.652-1.781-1.516 0-.863.766-1.515 1.78-1.515.764 0 .871.187.871 1.515zm39.544-.662c.572.913-.128 1.954-1.419 2.108-.943.113-1.003.025-1.003-1.446 0-1.47.06-1.558 1.003-1.445.552.066 1.19.418 1.419.783zm-23.485 2.719c-1.858.81-2.99 2.71-2.99 5.018 0 3.246 2.317 5.615 5.492 5.615s5.492-2.369 5.492-5.615c0-4.213-4.03-6.743-7.993-5.018zm4.156 2.895c2.001 1.575.879 4.897-1.654 4.897s-3.655-3.322-1.653-4.897c.548-.431 1.292-.785 1.653-.785.36 0 1.105.354 1.654.785zm-14.537 8.113c.86.916.866.965.197 1.705-.778.86-1.716.98-2.39.306-.63-.63-.567-1.444.173-2.262.81-.895.961-.876 2.02.25zm27.72-.316c.798.721.895 1.67.239 2.327-.674.674-1.612.553-2.39-.306-.67-.74-.664-.79.197-1.705 1.05-1.117 1.066-1.12 1.955-.316zm-13.392 6.816c-.254 2.133-2.636 2.133-2.89 0-.113-.943-.026-1.004 1.445-1.004 1.47 0 1.558.06 1.446 1.003z" fill="#fff"/><defs><linearGradient id="paint0_linear_516_279" x1="45" y1="0" x2="45" y2="90" gradientUnits="userSpaceOnUse"><stop stop-color="#D083FF"/><stop offset="1" stop-color="#7B4FF8"/></linearGradient></defs></svg>