<svg width="90" height="90" fill="none" xmlns="http://www.w3.org/2000/svg"><path d="M44.326 0L85 22.677v43.937L44.326 90 5 66.614V22.677L44.326 0z" fill="url(#paint0_linear_516_291)"/><path fill-rule="evenodd" clip-rule="evenodd" d="M37.935 21.245c-6.586 1.598-12.222 7.287-13.738 13.867-.564 2.448-.496 6.316.156 8.818.835 3.207 2.13 5.499 4.73 8.367 1.277 1.41 2.484 2.986 2.68 3.504.197.517.358 3.538.358 6.711 0 3.984.141 5.912.455 6.226.323.323 2.651.454 8.068.454 7.71 0 8.523-.137 8.523-1.439 0-1.075 1.18-2.969 2.242-3.596.712-.42 1.908-.646 3.422-.646 2.37 0 3.998-.57 4.97-1.737.356-.429.606-1.976.734-4.55.183-3.663.262-3.971 1.292-5.047a5.28 5.28 0 012.647-1.45c2.368-.467 2.228-1.27-1.08-6.221-2.517-3.768-2.864-4.494-2.864-6.008 0-7.895-6.587-15.68-14.696-17.372-2.542-.53-5.401-.487-7.9.12zm10.586 3.727c2.873 1.325 6.414 4.863 7.751 7.745.755 1.626 1.057 2.961 1.164 5.148.143 2.901.19 3.02 2.565 6.63 2.087 3.17 2.336 3.727 1.812 4.053-2.294 1.431-3.436 2.978-3.917 5.303l-.235 1.137-3.963.202c-4.72.241-6.76 1.109-9.502 4.04-1.59 1.7-3.363 5.262-3.363 6.757 0 .436-.596.554-2.805.554h-2.805l-.14-5.398c-.16-6.217-.433-6.987-3.734-10.511-6.167-6.582-6.374-15.709-.498-21.99 3.457-3.696 6.557-4.946 11.876-4.789 2.957.087 3.99.287 5.794 1.119zm9.358 33.782c0 1.385-1.33 2.105-3.885 2.105-1.21 0-2.756.233-3.437.517-1.407.588-3.21 2.568-3.75 4.118-.303.867-.588 1.047-1.655 1.047-1.084 0-1.288-.135-1.285-.852.005-1.268 2.077-4.645 3.529-5.752 1.953-1.49 3.942-2.053 7.358-2.082 3.069-.026 3.125-.01 3.125.9z" fill="#fff"/><defs><linearGradient id="paint0_linear_516_291" x1="-5" y1="-33.5" x2="59.5" y2="103.5" gradientUnits="userSpaceOnUse"><stop stop-color="red"/><stop offset="1" stop-color="#F0C838"/></linearGradient></defs></svg>