<svg width="90" height="90" fill="none" xmlns="http://www.w3.org/2000/svg"><path d="M44.326 0L85 22.677v43.937L44.326 90 5 66.614V22.677L44.326 0z" fill="url(#paint0_linear_516_297)"/><path fill-rule="evenodd" clip-rule="evenodd" d="M51.853 24.322c-4.635 4.407-7.858 8.595-9.887 12.846-1.547 3.24-3.403 9.38-3.404 11.26l-.002 1.042h-8.67c-7.558 0-8.701.077-8.902.6-.46 1.199-.256 18.162.225 18.643.657.657 46.919.657 47.576 0 .531-.532.652-17.966.13-18.79-.247-.387-2.19-.468-9.086-.378l-8.772.115v-4.381c0-7.118 1.315-12.389 4.798-19.244 1.58-3.11 1.918-4.08 1.617-4.642-.695-1.298-1.76-.743-5.622 2.93zm-1.587 7.582c-2.008 5.904-2.654 12.237-1.849 18.135.81 5.933.856 6.97.37 8.146-.592 1.428-2.115 2.27-4.108 2.27-1.249 0-1.697-.23-2.723-1.398l-1.228-1.4.216-4.377c.34-6.893 2.341-13.472 5.677-18.655 1.343-2.084 4.345-5.988 4.607-5.988.082 0-.351 1.47-.962 3.267zM37.333 52.595c.209.261.455 1.55.546 2.865.218 3.148-.346 3.533-3.353 2.286l-2.093-.867-2.256.822-2.257.821-2.066-.79-2.066-.791v-4.819h6.582c4.81 0 6.685.127 6.963.473zm28.88 1.936v2.41l-2.067.79-2.066.791-2.257-.821-2.256-.822-2.099.87c-2.937 1.218-3.437.875-3.308-2.27.054-1.323.276-2.62.493-2.882.289-.348 2.158-.475 6.977-.475h6.582v2.41zm-40.67 6.111c1.422.742 2.95.721 5.152-.068 1.686-.604 1.875-.604 3.138-.002 1.49.71 3.653.837 4.705.274.522-.279.854-.176 1.395.432.989 1.111 3.485 2.19 5.067 2.19 1.582 0 4.078-1.079 5.067-2.19.54-.608.873-.711 1.395-.432 1.052.563 3.214.437 4.705-.274 1.263-.602 1.452-.602 3.138.002 2.203.79 3.73.81 5.151.068.597-.311 1.236-.566 1.42-.566.185 0 .336 1.45.336 3.22v3.22H23.788v-3.22c0-1.77.151-3.22.335-3.22.185 0 .824.255 1.42.566z" fill="#fff"/><defs><linearGradient id="paint0_linear_516_297" x1="45" y1="0" x2="45" y2="90" gradientUnits="userSpaceOnUse"><stop stop-color="#40E3C6"/><stop offset="1" stop-color="#4DB7F3"/></linearGradient></defs></svg>